<svg width="551" height="428" viewBox="0 0 551 428" fill="none" xmlns="http://www.w3.org/2000/svg">
<path d="M437.588 53.7149C429.609 58.0767 426.949 71.0023 430.686 76.6274C416.856 80.7764 424.037 104.553 446.643 105.883C469.25 107.213 486.458 98.9547 475.354 81.3216C486.338 66.5209 481.285 49.9915 471.657 51.8133C461.324 31.1083 426.723 31.72 437.588 53.7149Z" fill="#0A1B35"/>
<path d="M461.657 107.478C458.169 107.467 454.75 106.511 451.763 104.712C451.715 104.695 451.672 104.667 451.636 104.631C451.6 104.595 451.573 104.552 451.555 104.504C451.538 104.456 451.532 104.405 451.537 104.355C451.542 104.304 451.557 104.255 451.583 104.211C451.609 104.168 451.644 104.13 451.686 104.102C451.728 104.073 451.776 104.054 451.826 104.046C451.876 104.038 451.928 104.041 451.977 104.055C452.025 104.069 452.07 104.094 452.109 104.127C455.961 106.433 460.514 107.28 464.938 106.514C469.363 105.748 473.365 103.419 476.218 99.9516C479.848 95.4569 481.537 88.2494 475.194 81.5206C475.163 81.4883 475.14 81.4502 475.124 81.4087C475.108 81.3672 475.1 81.3229 475.102 81.2785C475.103 81.234 475.113 81.1902 475.131 81.1496C475.149 81.109 475.175 81.0724 475.207 81.0418C475.24 81.0113 475.278 80.9874 475.319 80.9715C475.361 80.9556 475.405 80.9481 475.449 80.9493C475.494 80.9506 475.538 80.9606 475.578 80.9787C475.619 80.9969 475.655 81.0228 475.686 81.0551C482.255 88.1031 480.54 95.6829 476.737 100.377C474.894 102.591 472.59 104.374 469.984 105.6C467.379 106.827 464.536 107.468 461.657 107.478V107.478Z" fill="#0A1B35"/>
<path d="M428.185 81.0421C428.117 81.0402 428.051 81.0176 427.996 80.9771C427.942 80.9367 427.901 80.8805 427.879 80.816C424.342 70.683 429.076 57.0791 437.44 53.3557C437.522 53.3267 437.611 53.3282 437.692 53.3599C437.773 53.3917 437.839 53.4516 437.879 53.5285C437.897 53.5687 437.906 53.6119 437.907 53.6557C437.908 53.6996 437.9 53.7431 437.884 53.7839C437.868 53.8247 437.844 53.8619 437.813 53.8934C437.783 53.9249 437.746 53.95 437.706 53.9674C429.621 57.5578 425.06 70.7495 428.504 80.5634C428.518 80.6053 428.524 80.6496 428.522 80.6939C428.519 80.7381 428.507 80.7813 428.487 80.821C428.467 80.8606 428.44 80.8959 428.406 80.9247C428.372 80.9536 428.333 80.9754 428.291 80.9889L428.185 81.0421Z" fill="#0A1B35"/>
<path d="M426.018 66.4018H425.898C425.817 66.3691 425.752 66.307 425.715 66.2281C425.678 66.1492 425.672 66.0593 425.698 65.9762C428.092 59.6331 432.613 54.8059 437.481 53.3697C437.565 53.3451 437.656 53.355 437.733 53.3974C437.811 53.4398 437.868 53.5112 437.893 53.5958C437.917 53.6805 437.908 53.7714 437.865 53.8488C437.823 53.9261 437.751 53.9834 437.667 54.008C432.999 55.3378 428.651 60.0586 426.324 66.2156C426.296 66.2726 426.252 66.3204 426.198 66.3534C426.144 66.3864 426.081 66.4032 426.018 66.4018Z" fill="#0A1B35"/>
<path d="M444.635 420.128L436.949 420.141L435.659 391.271L448.598 391.59L444.635 420.128Z" fill="#FED4C2"/>
<path d="M431.27 171.004C431.27 171.004 430.592 251.124 428.903 286.005C428.837 287.041 428.837 288.08 428.903 289.116C431.43 324.077 435.619 391.272 435.619 391.272L448.638 391.604C448.638 391.604 459.981 337.947 452.959 289.342C464.249 234.369 470.327 185.312 460.1 170.99L431.27 171.004Z" fill="#D96275"/>
<path opacity="0.2" d="M453.08 202.826C449.09 216.204 452.973 259.21 455.034 279.05C457.84 264.715 460.234 250.925 462.003 238.212L453.08 202.826Z" fill="#334D74"/>
<path d="M436.085 416.405H446.072C446.282 416.397 446.487 416.47 446.645 416.608C446.804 416.747 446.903 416.94 446.923 417.15L447.934 425.328C447.939 425.581 447.894 425.832 447.801 426.068C447.707 426.303 447.568 426.518 447.391 426.698C447.214 426.879 447.003 427.023 446.769 427.121C446.536 427.219 446.285 427.269 446.032 427.269C441.63 427.269 439.529 426.95 433.984 426.963C430.567 426.963 428.505 427.309 423.785 427.309C419.064 427.309 419.064 422.788 421.045 422.376C429.942 420.527 431.085 419.503 434.184 417.056C434.727 416.634 435.397 416.405 436.085 416.405Z" fill="#0A1B35"/>
<path d="M439.369 112.04C438.877 114.793 438.319 117.359 437.72 120.019C437.122 122.678 436.51 125.338 435.805 127.998C434.409 133.317 432.96 138.53 431.045 143.796C430.084 146.518 428.965 149.182 427.694 151.775C426.989 153.213 426.176 154.596 425.26 155.91C424.994 156.269 424.755 156.615 424.409 157.014C424.078 157.437 423.709 157.829 423.305 158.184C422.286 159.148 421.057 159.862 419.715 160.272C418.308 160.697 416.816 160.757 415.38 160.445C414.249 160.183 413.17 159.734 412.188 159.115C410.698 158.161 409.377 156.965 408.279 155.578C406.393 153.231 404.889 150.601 403.824 147.785C403.59 147.187 403.57 146.526 403.766 145.914C403.963 145.302 404.365 144.777 404.904 144.427C405.443 144.077 406.086 143.923 406.725 143.993C407.364 144.062 407.96 144.349 408.412 144.806L408.571 144.979C410.222 146.723 412 148.34 413.89 149.82C414.629 150.384 415.45 150.832 416.324 151.15C416.643 151.229 416.869 151.229 416.896 151.15C416.922 151.07 416.71 151.017 416.523 151.03C416.337 151.043 416.218 151.11 416.271 151.03C416.333 150.914 416.404 150.803 416.483 150.697C416.616 150.536 416.731 150.363 416.829 150.179C417.386 149.263 417.875 148.307 418.292 147.32C419.26 145.042 420.112 142.716 420.845 140.352C422.361 135.484 423.744 130.418 424.941 125.325C426.138 120.232 427.321 115.032 428.385 109.952C428.713 108.548 429.572 107.325 430.783 106.541C431.993 105.758 433.46 105.474 434.876 105.749C436.291 106.025 437.545 106.838 438.373 108.019C439.201 109.2 439.539 110.655 439.316 112.08L439.369 112.04Z" fill="#FED4C2"/>
<path d="M427.281 160.126C427.281 163.397 478.265 164.035 478.265 159.713L452.215 153.064L427.281 160.126" fill="#0A1B35"/>
<path d="M436.643 103.463C450.086 101.215 463.82 101.35 477.216 103.862C478.001 103.987 478.753 104.271 479.425 104.697C480.097 105.123 480.674 105.682 481.122 106.34C481.569 106.998 481.877 107.741 482.026 108.522C482.175 109.304 482.163 110.107 481.99 110.884C474.782 143.158 475.194 154.009 475.886 171.004H431.284C429.05 142.653 427.867 126.469 427.574 117.28C427.335 110.272 429.742 104.487 436.643 103.463Z" fill="#FED4C2"/>
<path opacity="0.2" d="M477.082 112.837C476.801 117.341 477.398 121.858 478.838 126.135C479.409 123.063 480.074 119.765 480.832 116.161L477.082 112.837Z" fill="#334D74"/>
<path d="M462.574 79.8989C461.244 86.3485 460.034 98.197 464.556 102.506C464.556 102.506 462.787 109.061 450.792 109.061C437.587 109.061 444.476 102.506 444.476 102.506C451.683 100.777 451.497 95.431 450.247 90.4176L462.574 79.8989Z" fill="#FED4C2"/>
<path opacity="0.2" d="M457.547 84.1938L450.246 90.4572C450.556 91.6251 450.765 92.8174 450.871 94.0211C453.624 93.6221 457.4 90.6035 457.693 87.7178C457.857 86.5439 457.807 85.3501 457.547 84.1938V84.1938Z" fill="#334D74"/>
<path d="M469.542 68.7012C467.068 79.2199 466.257 83.7279 459.954 88.2625C450.486 95.0977 438.092 89.7785 437.347 78.7279C436.682 68.7942 440.818 53.2489 451.975 50.8021C454.426 50.2495 456.977 50.3322 459.386 51.0421C461.796 51.752 463.984 53.0657 465.744 54.8586C467.503 56.6515 468.776 58.8641 469.441 61.2866C470.105 63.7092 470.14 66.2614 469.542 68.7012V68.7012Z" fill="#FED4C2"/>
<path d="M465.526 52.8774C454.382 54.1142 457.773 74.8856 466.151 76.8936C475.965 72.0931 482.016 53.8615 465.526 52.8774Z" fill="#0A1B35"/>
<path d="M520.075 401.113L512.375 403.453L501.138 379.916L512.987 376.684L520.075 401.113Z" fill="#FED4C2"/>
<path d="M510.155 401.098L520.049 397.268C520.222 397.202 520.413 397.198 520.588 397.259C520.763 397.32 520.911 397.441 521.006 397.601L525.434 405.074C525.54 405.261 525.605 405.468 525.624 405.681C525.643 405.895 525.616 406.11 525.544 406.312C525.472 406.514 525.357 406.698 525.207 406.852C525.057 407.005 524.876 407.125 524.676 407.202C521.205 408.532 519.53 409.21 515.181 410.899C512.522 411.936 508.346 415.394 504.649 416.816C500.953 418.239 499.33 414.862 500.66 413.691C504.263 410.547 507.101 406.622 508.958 402.215C509.071 401.957 509.235 401.725 509.441 401.533C509.647 401.341 509.89 401.193 510.155 401.098V401.098Z" fill="#0A1B35"/>
<path d="M443.518 171.003C443.518 171.003 459.914 254.874 466.124 288.026C472.547 322.601 501.164 379.862 501.164 379.862L513.04 376.617C513.04 376.617 496.776 315.366 489.196 285.007C487.707 230.033 489.462 185.272 475.898 170.95L443.518 171.003Z" fill="#D96275"/>
<path d="M452.095 68.6356C451.949 69.5 451.377 70.125 450.765 69.9654C450.154 69.8058 449.861 69.0877 450.007 68.2234C450.154 67.359 450.739 66.734 451.337 66.8271C451.936 66.9201 452.255 67.7712 452.095 68.6356Z" fill="#0A1B35"/>
<path d="M442.321 66.973C442.175 67.8373 441.59 68.4623 440.991 68.3028C440.393 68.1432 440.087 67.4384 440.233 66.5607C440.38 65.6831 440.965 65.0713 441.563 65.2309C442.162 65.3905 442.468 66.1086 442.321 66.973Z" fill="#0A1B35"/>
<path d="M441.803 65.3237L439.821 64.3662C439.821 64.3662 440.619 66.1747 441.803 65.3237Z" fill="#0A1B35"/>
<path d="M445.06 69.0479C443.962 70.887 442.62 72.569 441.07 74.0479C441.458 74.4357 441.925 74.7352 442.439 74.9257C442.953 75.1162 443.502 75.1933 444.049 75.1517L445.06 69.0479Z" fill="#E89470"/>
<path d="M448.172 79.3404C447.726 79.3407 447.281 79.3006 446.842 79.2207C446.808 79.2159 446.776 79.2044 446.748 79.1869C446.719 79.1695 446.694 79.1465 446.674 79.1193C446.654 79.092 446.64 79.061 446.632 79.0282C446.624 78.9954 446.623 78.9614 446.629 78.9281C446.642 78.8623 446.679 78.8038 446.734 78.7643C446.788 78.7249 446.855 78.7074 446.922 78.7154C447.995 78.9199 449.102 78.87 450.152 78.5698C451.203 78.2696 452.169 77.7274 452.972 76.9866C452.996 76.9608 453.025 76.9402 453.057 76.9262C453.089 76.9121 453.123 76.9048 453.158 76.9048C453.193 76.9048 453.228 76.9121 453.26 76.9262C453.292 76.9402 453.321 76.9608 453.345 76.9866C453.389 77.0356 453.414 77.0997 453.414 77.1662C453.414 77.2326 453.389 77.2966 453.345 77.3457C451.952 78.6686 450.092 79.3859 448.172 79.3404V79.3404Z" fill="#0A1B35"/>
<path d="M471.058 77.7702C469.998 79.5707 468.275 80.8837 466.257 81.4272C463.598 82.1054 462.268 79.6984 463.092 77.1984C463.797 74.951 466.058 71.8792 468.731 72.2914C469.311 72.3975 469.856 72.6461 470.317 73.0148C470.778 73.3835 471.14 73.8608 471.37 74.4039C471.601 74.947 471.693 75.5389 471.639 76.1265C471.584 76.714 471.385 77.2788 471.058 77.7702Z" fill="#FED4C2"/>
<path d="M456.337 67.3064C456.229 67.3053 456.125 67.2699 456.039 67.2053C455.952 67.1408 455.889 67.0504 455.858 66.9473C455.153 64.6734 452.241 63.6893 452.214 63.6893C452.149 63.6698 452.088 63.6371 452.035 63.5934C451.983 63.5496 451.94 63.4956 451.909 63.4347C451.878 63.3738 451.859 63.3072 451.855 63.2389C451.85 63.1707 451.859 63.1023 451.882 63.0377C451.902 62.9722 451.934 62.9113 451.978 62.8587C452.022 62.8062 452.076 62.763 452.137 62.732C452.198 62.7009 452.264 62.6825 452.332 62.6779C452.401 62.6733 452.469 62.6826 452.534 62.7053C452.667 62.7053 455.978 63.8622 456.842 66.6947C456.863 66.7601 456.87 66.829 456.864 66.8974C456.857 66.9657 456.837 67.0321 456.805 67.0927C456.773 67.1533 456.729 67.2069 456.676 67.2504C456.623 67.294 456.562 67.3265 456.496 67.3463L456.337 67.3064Z" fill="#0A1B35"/>
<path d="M440.14 61.9464C440.051 61.9453 439.964 61.9215 439.887 61.8773C439.81 61.833 439.746 61.7699 439.701 61.6937C439.634 61.5738 439.617 61.4322 439.655 61.3001C439.692 61.168 439.781 61.0561 439.9 60.989C440.601 60.5654 441.392 60.3154 442.209 60.2599C443.025 60.2044 443.843 60.3449 444.594 60.6698C444.715 60.7324 444.807 60.8399 444.849 60.9693C444.891 61.0986 444.881 61.2394 444.821 61.3613C444.758 61.4822 444.65 61.5736 444.521 61.6159C444.392 61.6582 444.251 61.6479 444.129 61.5874V61.5874C443.529 61.3417 442.879 61.2402 442.233 61.291C441.586 61.3418 440.96 61.5435 440.406 61.8799C440.326 61.9283 440.233 61.9514 440.14 61.9464V61.9464Z" fill="#0A1B35"/>
<path d="M480.859 105.711C484.649 110.671 488.093 115.684 491.365 120.977C492.987 123.636 494.583 126.296 496.046 129.128C497.635 132.063 498.948 135.14 499.969 138.317C500.115 138.743 500.221 139.235 500.341 139.647L500.434 140.033L500.554 140.591C500.608 140.939 500.643 141.29 500.66 141.642C500.721 142.796 500.636 143.953 500.407 145.086C500.029 146.882 499.463 148.634 498.719 150.312C497.407 153.277 495.859 156.132 494.091 158.849C490.724 164.072 486.94 169.013 482.774 173.624C482.318 174.134 481.688 174.458 481.007 174.531C480.326 174.604 479.642 174.422 479.088 174.02C478.533 173.617 478.148 173.024 478.006 172.354C477.864 171.684 477.976 170.985 478.319 170.392V170.326C481.258 165.206 484.171 159.94 486.684 154.727C487.916 152.214 488.987 149.624 489.889 146.974C490.277 145.849 490.544 144.686 490.687 143.504C490.736 143.155 490.736 142.802 490.687 142.453V142.373V142.214C490.593 141.948 490.527 141.708 490.407 141.429C489.372 138.936 488.154 136.522 486.764 134.208C485.301 131.748 483.745 129.288 482.149 126.828C478.905 121.961 475.5 117.067 472.043 112.333C471.214 111.145 470.881 109.682 471.113 108.252C471.345 106.823 472.125 105.54 473.287 104.675C474.449 103.811 475.901 103.433 477.337 103.621C478.773 103.809 480.079 104.549 480.979 105.684L480.859 105.711Z" fill="#FED4C2"/>
<path d="M451.59 66.9868L449.608 66.0293C449.608 66.0293 450.393 67.8511 451.59 66.9868Z" fill="#0A1B35"/>
<path d="M428.823 114.101C429.644 110.746 430.702 107.453 431.988 104.247C434.028 103.638 436.113 103.193 438.224 102.917C442.525 106.729 446.063 111.323 448.65 116.454C454.355 110.683 465.273 104.845 471.922 102.718C474.171 102.576 476.427 102.86 478.571 103.555C474.036 117.864 469.408 132.252 477.613 135.949C477.467 142.745 477.852 151.176 478.198 159.7C470.445 158.848 439.701 157.372 427.214 160.112C426.575 151.468 426.349 144.154 426.389 137.838C420.578 130.431 426.403 120.351 428.823 114.101Z" fill="#0A1B35"/>
<g opacity="0.2">
<path opacity="0.2" d="M441.044 140.711C440.974 140.72 440.908 140.746 440.852 140.788C440.796 140.83 440.752 140.886 440.725 140.951C439.782 143.596 439.81 146.49 440.805 149.116C439.887 148.344 438.983 147.586 438.145 146.815C438.894 145.214 439.183 143.436 438.982 141.68C438.78 139.923 438.094 138.258 437.001 136.868C436.959 136.814 436.905 136.771 436.842 136.743C436.779 136.715 436.711 136.703 436.642 136.709C436.572 136.714 436.504 136.739 436.448 136.782C436.391 136.824 436.348 136.882 436.323 136.948C435.35 139.667 435.411 142.649 436.496 145.326C435.299 144.235 434.155 143.145 433.105 142.094C433.89 140.485 434.206 138.687 434.015 136.906C433.825 135.125 433.136 133.434 432.028 132.028C431.986 131.973 431.931 131.93 431.869 131.902C431.806 131.874 431.737 131.863 431.669 131.868C431.598 131.874 431.531 131.899 431.474 131.941C431.418 131.984 431.375 132.041 431.35 132.107C430.383 134.832 430.444 137.816 431.522 140.498C429.701 138.597 428.185 136.868 427.054 135.432C426.648 133.824 425.841 132.345 424.709 131.134C423.576 129.922 422.155 129.017 420.578 128.504C420.514 128.492 420.448 128.497 420.386 128.516C420.324 128.535 420.267 128.569 420.22 128.614C420.173 128.66 420.138 128.715 420.117 128.777C420.096 128.839 420.09 128.905 420.1 128.969C421.296 134.86 425.631 135.884 426.509 136.03C427.134 136.815 427.839 137.679 428.69 138.61C426.606 137.676 424.287 137.398 422.041 137.812C421.973 137.828 421.911 137.862 421.861 137.912C421.812 137.961 421.777 138.023 421.762 138.092C421.742 138.157 421.739 138.227 421.753 138.295C421.767 138.362 421.797 138.425 421.842 138.477C422.985 139.781 424.47 140.739 426.128 141.244C427.787 141.75 429.554 141.781 431.23 141.336C431.975 142.108 432.773 142.892 433.61 143.703C430.794 142.898 427.788 143.076 425.086 144.209C425.022 144.243 424.969 144.293 424.931 144.355C424.894 144.417 424.874 144.489 424.874 144.561C424.874 144.633 424.894 144.705 424.931 144.767C424.969 144.829 425.022 144.879 425.086 144.913C426.604 145.859 428.344 146.389 430.131 146.452C431.919 146.515 433.692 146.109 435.273 145.272C436.39 146.323 437.573 147.374 438.796 148.424C436.072 147.194 432.989 147.015 430.139 147.919C430.073 147.946 430.015 147.989 429.971 148.045C429.927 148.101 429.898 148.167 429.887 148.238C429.88 148.307 429.89 148.377 429.915 148.442C429.94 148.506 429.981 148.564 430.033 148.61C431.433 149.744 433.119 150.469 434.905 150.703C436.691 150.938 438.508 150.674 440.153 149.94L440.259 149.874C440.301 149.829 440.329 149.774 440.339 149.714L441.842 150.937C441.888 151 441.953 151.047 442.028 151.07C442.826 151.709 443.637 152.334 444.461 152.945C444.534 153.007 444.626 153.041 444.721 153.041C444.816 153.041 444.908 153.007 444.98 152.945V152.945C445.011 152.903 445.033 152.854 445.045 152.803C445.057 152.752 445.058 152.699 445.05 152.647C445.041 152.595 445.022 152.545 444.994 152.501C444.966 152.456 444.93 152.417 444.887 152.387C444.129 151.815 443.371 151.243 442.64 150.645C443.33 149.061 443.579 147.319 443.359 145.605C443.139 143.891 442.458 142.269 441.39 140.911C441.355 140.85 441.304 140.8 441.243 140.765C441.183 140.73 441.114 140.711 441.044 140.711V140.711Z" fill="white"/>
<path opacity="0.2" d="M427.933 120.113C428.003 120.104 428.069 120.078 428.125 120.036C428.181 119.994 428.225 119.938 428.252 119.873C429.195 117.228 429.167 114.334 428.173 111.708C429.09 112.48 429.995 113.238 430.832 114.009C430.083 115.61 429.794 117.388 429.996 119.144C430.198 120.9 430.883 122.566 431.976 123.956C432.018 124.01 432.073 124.053 432.135 124.081C432.198 124.109 432.267 124.121 432.335 124.115C432.405 124.11 432.473 124.084 432.529 124.042C432.586 124 432.629 123.942 432.654 123.876C433.628 121.157 433.566 118.175 432.481 115.498C433.678 116.589 434.822 117.679 435.872 118.73C435.087 120.339 434.771 122.137 434.962 123.918C435.152 125.699 435.841 127.389 436.949 128.796C436.991 128.851 437.046 128.894 437.109 128.922C437.171 128.949 437.24 128.961 437.308 128.956C437.379 128.95 437.446 128.925 437.503 128.882C437.559 128.84 437.603 128.783 437.628 128.716C438.594 125.992 438.533 123.008 437.455 120.325C439.277 122.227 440.793 123.956 441.923 125.392C442.329 127 443.136 128.479 444.268 129.69C445.401 130.902 446.822 131.807 448.399 132.32C448.463 132.331 448.529 132.327 448.591 132.308C448.654 132.289 448.71 132.255 448.757 132.21C448.804 132.164 448.839 132.108 448.86 132.047C448.881 131.985 448.887 131.919 448.878 131.855C447.681 125.964 443.346 124.94 442.468 124.794C441.843 124.009 441.138 123.145 440.287 122.214C442.37 123.151 444.692 123.425 446.936 122.998C447.004 122.987 447.067 122.955 447.116 122.908C447.166 122.861 447.201 122.799 447.215 122.732C447.235 122.667 447.239 122.597 447.225 122.529C447.211 122.462 447.18 122.399 447.136 122.347C445.992 121.043 444.508 120.085 442.849 119.579C441.19 119.074 439.423 119.042 437.747 119.488C437.003 118.716 436.205 117.932 435.367 117.121C438.183 117.926 441.19 117.748 443.891 116.615C443.955 116.581 444.008 116.531 444.046 116.468C444.083 116.406 444.103 116.335 444.103 116.263C444.103 116.19 444.083 116.119 444.046 116.057C444.008 115.995 443.955 115.944 443.891 115.91C442.373 114.965 440.633 114.434 438.846 114.371C437.058 114.308 435.286 114.715 433.705 115.551C432.588 114.501 431.404 113.45 430.181 112.4C432.905 113.629 435.988 113.809 438.838 112.905C438.902 112.876 438.959 112.832 439.003 112.777C439.047 112.721 439.077 112.656 439.09 112.586C439.097 112.517 439.088 112.447 439.062 112.382C439.037 112.317 438.996 112.26 438.944 112.214C437.544 111.08 435.858 110.355 434.072 110.121C432.286 109.886 430.47 110.15 428.824 110.884L428.718 110.95C428.676 110.994 428.648 111.05 428.638 111.11L427.135 109.886C427.089 109.824 427.024 109.777 426.949 109.753C426.151 109.115 425.34 108.49 424.516 107.878C424.444 107.817 424.352 107.783 424.256 107.783C424.161 107.783 424.069 107.817 423.997 107.878V107.878C423.937 107.964 423.912 108.07 423.927 108.174C423.941 108.277 423.995 108.371 424.077 108.437C424.848 109.009 425.606 109.581 426.338 110.179C425.647 111.763 425.398 113.505 425.618 115.219C425.838 116.933 426.519 118.555 427.588 119.913C427.623 119.974 427.673 120.024 427.734 120.059C427.794 120.094 427.863 120.113 427.933 120.113V120.113Z" fill="white"/>
<path opacity="0.2" d="M468.931 150.419C468.864 150.428 468.8 150.454 468.744 150.493C468.689 150.532 468.643 150.584 468.612 150.645C467.681 153.292 467.709 156.182 468.692 158.81C467.774 158.052 466.87 157.28 466.032 156.509C466.781 154.91 467.071 153.134 466.869 151.38C466.667 149.626 465.982 147.962 464.889 146.576C464.847 146.521 464.793 146.478 464.73 146.45C464.668 146.423 464.599 146.412 464.531 146.418C464.463 146.425 464.397 146.449 464.341 146.488C464.285 146.527 464.24 146.58 464.21 146.642C463.244 149.367 463.305 152.351 464.383 155.033C463.186 153.929 462.043 152.852 460.992 151.802C461.781 150.195 462.099 148.399 461.908 146.619C461.717 144.84 461.026 143.151 459.915 141.748C459.876 141.691 459.822 141.646 459.758 141.617C459.695 141.589 459.625 141.579 459.556 141.589C459.488 141.597 459.424 141.622 459.368 141.662C459.312 141.701 459.267 141.754 459.237 141.815C458.27 144.539 458.332 147.523 459.41 150.206C457.588 148.318 456.072 146.576 454.942 145.139C454.531 143.534 453.722 142.057 452.591 140.846C451.459 139.635 450.04 138.729 448.466 138.211C448.402 138.198 448.335 138.201 448.273 138.22C448.21 138.238 448.153 138.272 448.107 138.318C448.058 138.365 448.022 138.424 448.001 138.489C447.981 138.554 447.976 138.623 447.987 138.69C449.184 144.568 453.532 145.592 454.396 145.738C455.021 146.522 455.726 147.4 456.577 148.331C454.493 147.396 452.174 147.118 449.928 147.533C449.862 147.551 449.801 147.587 449.752 147.636C449.703 147.685 449.667 147.745 449.649 147.812C449.629 147.876 449.626 147.944 449.64 148.009C449.654 148.074 449.684 148.135 449.729 148.185C450.865 149.497 452.35 150.462 454.011 150.968C455.672 151.474 457.442 151.5 459.117 151.044C459.862 151.815 460.66 152.613 461.498 153.424C458.682 152.611 455.673 152.79 452.974 153.929C452.913 153.966 452.862 154.016 452.825 154.076C452.788 154.136 452.766 154.205 452.761 154.275C452.759 154.345 452.777 154.415 452.812 154.476C452.848 154.537 452.899 154.587 452.96 154.621C454.478 155.567 456.217 156.099 458.004 156.165C459.791 156.23 461.564 155.826 463.147 154.993C464.264 156.03 465.447 157.081 466.671 158.145C463.946 156.915 460.863 156.735 458.014 157.639C457.947 157.666 457.889 157.71 457.845 157.766C457.801 157.822 457.772 157.888 457.761 157.959C457.753 158.027 457.763 158.097 457.792 158.16C457.82 158.223 457.864 158.278 457.92 158.318C459.32 159.452 461.007 160.176 462.793 160.411C464.579 160.645 466.395 160.381 468.04 159.647L468.133 159.568C468.172 159.524 468.203 159.475 468.226 159.421L469.729 160.645C469.771 160.707 469.832 160.753 469.902 160.778C470.7 161.416 471.511 162.041 472.335 162.666C472.408 162.728 472.5 162.762 472.595 162.762C472.69 162.762 472.782 162.728 472.854 162.666C472.918 162.581 472.945 162.475 472.93 162.37C472.915 162.266 472.859 162.171 472.774 162.108C472.003 161.536 471.258 160.951 470.514 160.366C471.208 158.783 471.459 157.042 471.241 155.327C471.024 153.613 470.345 151.99 469.277 150.631C469.243 150.569 469.193 150.517 469.132 150.48C469.071 150.442 469.002 150.421 468.931 150.419V150.419Z" fill="white"/>
<path opacity="0.2" d="M494.503 159.608C494.433 159.614 494.366 159.639 494.309 159.682C494.253 159.724 494.209 159.782 494.184 159.848C493.236 162.491 493.26 165.385 494.251 168.013C493.333 167.241 492.442 166.47 491.591 165.712C492.343 164.112 492.636 162.335 492.436 160.578C492.237 158.822 491.553 157.155 490.461 155.765C490.418 155.709 490.361 155.664 490.296 155.636C490.23 155.609 490.159 155.598 490.089 155.606C490.019 155.615 489.954 155.642 489.898 155.684C489.842 155.726 489.798 155.781 489.769 155.845C488.802 158.565 488.864 161.545 489.942 164.223C488.745 163.132 487.615 162.042 486.565 160.991C487.35 159.382 487.665 157.584 487.475 155.803C487.284 154.022 486.595 152.332 485.487 150.925C485.446 150.87 485.391 150.827 485.328 150.799C485.265 150.772 485.197 150.76 485.128 150.765C485.058 150.771 484.99 150.796 484.934 150.838C484.877 150.881 484.834 150.938 484.809 151.004C483.836 153.728 483.898 156.714 484.982 159.396C483.16 157.494 481.631 155.765 480.514 154.329C480.108 152.721 479.301 151.242 478.168 150.031C477.036 148.819 475.615 147.914 474.038 147.401C473.973 147.386 473.906 147.388 473.842 147.406C473.778 147.424 473.72 147.458 473.673 147.504C473.625 147.55 473.59 147.607 473.57 147.671C473.55 147.734 473.546 147.801 473.559 147.866C474.756 153.757 479.091 154.781 479.969 154.927C480.58 155.712 481.299 156.576 482.15 157.507C480.065 156.576 477.747 156.298 475.501 156.709C475.435 156.73 475.375 156.766 475.327 156.815C475.278 156.863 475.242 156.923 475.221 156.989C475.203 157.056 475.202 157.126 475.218 157.193C475.235 157.261 475.268 157.323 475.314 157.374C476.457 158.676 477.939 159.633 479.595 160.138C481.251 160.643 483.016 160.676 484.69 160.233C485.448 161.005 486.232 161.789 487.07 162.6C484.258 161.795 481.256 161.973 478.559 163.106C478.495 163.138 478.441 163.187 478.404 163.248C478.366 163.309 478.346 163.38 478.346 163.451C478.345 163.522 478.362 163.592 478.394 163.654C478.427 163.717 478.474 163.771 478.533 163.81C480.055 164.752 481.796 165.28 483.585 165.343C485.373 165.406 487.148 165.002 488.732 164.17C489.849 165.216 491.019 166.266 492.243 167.321C489.518 166.092 486.435 165.912 483.586 166.816C483.52 166.841 483.462 166.884 483.42 166.941C483.377 166.997 483.352 167.065 483.346 167.135C483.34 167.204 483.349 167.274 483.375 167.339C483.4 167.404 483.441 167.461 483.493 167.507C484.893 168.64 486.579 169.363 488.365 169.598C490.151 169.833 491.967 169.569 493.612 168.837C493.643 168.843 493.675 168.843 493.706 168.837C493.756 168.798 493.789 168.741 493.799 168.678L495.301 169.901C495.346 169.96 495.406 170.006 495.474 170.034C496.272 170.672 497.083 171.297 497.908 171.909C497.98 171.971 498.072 172.005 498.167 172.005C498.262 172.005 498.354 171.971 498.426 171.909V171.909C498.46 171.868 498.484 171.82 498.498 171.769C498.512 171.718 498.515 171.665 498.508 171.612C498.5 171.56 498.482 171.51 498.454 171.465C498.427 171.42 498.39 171.381 498.347 171.35L496.086 169.608C496.78 168.026 497.031 166.285 496.814 164.57C496.596 162.856 495.917 161.233 494.849 159.874C494.822 159.802 494.775 159.739 494.714 159.692C494.653 159.645 494.58 159.616 494.503 159.608V159.608Z" fill="white"/>
<path opacity="0.2" d="M436.031 161.11C435.963 161.115 435.897 161.139 435.841 161.179C435.785 161.219 435.74 161.273 435.712 161.336C434.764 163.979 434.787 166.873 435.779 169.501C434.861 168.743 433.97 167.971 433.119 167.2C433.871 165.6 434.164 163.823 433.964 162.066C433.765 160.31 433.081 158.643 431.989 157.253C431.945 157.199 431.888 157.157 431.824 157.131C431.76 157.105 431.69 157.095 431.621 157.103C431.552 157.111 431.486 157.136 431.43 157.176C431.373 157.217 431.327 157.27 431.297 157.333C430.33 160.058 430.392 163.042 431.47 165.724C430.273 164.62 429.143 163.543 428.092 162.493C428.878 160.883 429.193 159.085 429.003 157.304C428.812 155.524 428.123 153.833 427.015 152.426C426.975 152.371 426.92 152.328 426.856 152.302C426.793 152.277 426.724 152.269 426.656 152.28C426.587 152.283 426.52 152.305 426.463 152.346C426.406 152.386 426.363 152.441 426.337 152.506C425.364 155.229 425.425 158.216 426.51 160.897C424.935 159.286 423.443 157.595 422.042 155.83C421.631 154.224 420.822 152.748 419.691 151.537C418.559 150.326 417.14 149.42 415.566 148.902C415.5 148.889 415.431 148.892 415.367 148.91C415.302 148.929 415.242 148.962 415.193 149.008C415.151 149.057 415.119 149.114 415.101 149.176C415.083 149.238 415.078 149.303 415.087 149.367C416.284 155.258 420.619 156.282 421.496 156.429C422.108 157.213 422.826 158.078 423.677 159.088C421.596 158.144 419.274 157.865 417.028 158.29C416.963 158.308 416.903 158.341 416.854 158.387C416.806 158.434 416.769 158.492 416.749 158.556C416.731 158.623 416.73 158.694 416.746 158.761C416.762 158.829 416.795 158.891 416.842 158.942C417.976 160.255 419.458 161.22 421.117 161.726C422.776 162.232 424.544 162.258 426.217 161.801C426.975 162.572 427.76 163.37 428.598 164.181C425.787 163.363 422.781 163.542 420.087 164.687C420.024 164.717 419.97 164.764 419.933 164.822C419.895 164.881 419.875 164.949 419.874 165.019C419.872 165.09 419.888 165.16 419.92 165.223C419.953 165.286 420.001 165.339 420.06 165.378C421.58 166.324 423.321 166.856 425.111 166.922C426.9 166.987 428.675 166.583 430.26 165.751C431.377 166.788 432.547 167.838 433.771 168.889C431.044 167.662 427.961 167.487 425.114 168.397C425.049 168.421 424.993 168.462 424.951 168.516C424.909 168.57 424.882 168.635 424.874 168.703C424.865 168.772 424.874 168.843 424.899 168.908C424.925 168.973 424.967 169.031 425.02 169.075C426.421 170.208 428.107 170.931 429.893 171.166C431.679 171.401 433.495 171.137 435.14 170.405C435.171 170.411 435.203 170.411 435.233 170.405C435.281 170.369 435.314 170.317 435.326 170.259L436.829 171.482C436.874 171.541 436.933 171.587 437.002 171.615C437.813 172.253 438.611 172.878 439.436 173.503C439.508 173.565 439.6 173.599 439.695 173.599C439.79 173.599 439.882 173.565 439.954 173.503V173.503C439.987 173.462 440.012 173.415 440.026 173.364C440.04 173.313 440.043 173.259 440.036 173.207C440.028 173.154 440.01 173.104 439.982 173.059C439.954 173.014 439.918 172.975 439.874 172.945L437.614 171.203C438.307 169.618 438.559 167.875 438.341 166.158C438.123 164.442 437.445 162.817 436.377 161.455C436.371 161.366 436.332 161.281 436.269 161.218C436.205 161.154 436.121 161.116 436.031 161.11V161.11Z" fill="white"/>
<path opacity="0.2" d="M468.079 105.086C468.01 105.095 467.945 105.122 467.889 105.164C467.833 105.206 467.789 105.261 467.76 105.325C466.829 107.972 466.857 110.862 467.84 113.49C466.923 112.719 466.018 111.961 465.181 111.19C465.929 109.588 466.219 107.81 466.017 106.054C465.815 104.298 465.13 102.632 464.037 101.243C463.995 101.188 463.94 101.145 463.878 101.117C463.815 101.089 463.746 101.078 463.678 101.083C463.607 101.089 463.54 101.114 463.484 101.156C463.427 101.199 463.384 101.256 463.359 101.322C462.392 104.042 462.453 107.022 463.532 109.7C462.335 108.61 461.191 107.519 460.141 106.469C460.926 104.859 461.241 103.061 461.051 101.28C460.86 99.4998 460.171 97.809 459.063 96.4022C459.022 96.3468 458.968 96.3031 458.905 96.2751C458.842 96.2471 458.773 96.2359 458.704 96.2426C458.634 96.2481 458.567 96.2735 458.51 96.3159C458.454 96.3583 458.41 96.4159 458.385 96.4819C457.418 99.2066 457.48 102.19 458.558 104.873C456.736 102.971 455.22 101.243 454.09 99.8064C453.684 98.1985 452.877 96.7197 451.744 95.5081C450.612 94.2965 449.191 93.3917 447.614 92.8782C447.55 92.867 447.484 92.8712 447.422 92.8904C447.359 92.9096 447.302 92.9433 447.256 92.9887C447.209 93.0341 447.174 93.09 447.153 93.1517C447.132 93.2134 447.126 93.2791 447.135 93.3436C448.332 99.2346 452.68 100.259 453.545 100.405C454.17 101.189 454.875 102.054 455.726 102.985C453.642 102.05 451.323 101.772 449.077 102.187C449.011 102.207 448.951 102.243 448.903 102.292C448.854 102.341 448.818 102.4 448.797 102.466C448.777 102.532 448.774 102.602 448.788 102.669C448.802 102.736 448.833 102.799 448.877 102.852C450.021 104.155 451.505 105.114 453.164 105.619C454.823 106.124 456.59 106.156 458.266 105.711C459.01 106.482 459.808 107.267 460.646 108.078C457.83 107.273 454.823 107.451 452.122 108.583C452.061 108.619 452.01 108.67 451.973 108.73C451.936 108.79 451.914 108.858 451.909 108.929C451.908 109.001 451.926 109.072 451.961 109.135C451.996 109.198 452.047 109.251 452.109 109.288C453.627 110.233 455.366 110.764 457.154 110.827C458.941 110.89 460.714 110.483 462.295 109.647C463.412 110.697 464.595 111.748 465.819 112.799C463.094 111.569 460.011 111.389 457.162 112.293C457.096 112.32 457.038 112.364 456.993 112.419C456.949 112.475 456.92 112.542 456.909 112.612C456.901 112.683 456.912 112.754 456.94 112.82C456.968 112.885 457.012 112.942 457.069 112.985C458.467 114.118 460.151 114.841 461.934 115.076C463.718 115.311 465.532 115.047 467.175 114.315L467.282 114.248C467.324 114.204 467.351 114.148 467.361 114.089L468.864 115.312C468.913 115.372 468.978 115.418 469.05 115.445C469.848 116.083 470.659 116.708 471.484 117.32C471.556 117.382 471.648 117.416 471.743 117.416C471.838 117.416 471.93 117.382 472.002 117.32V117.32C472.066 117.235 472.093 117.129 472.078 117.024C472.063 116.919 472.007 116.825 471.923 116.761C471.151 116.19 470.407 115.618 469.662 115.019C470.356 113.437 470.608 111.696 470.39 109.981C470.172 108.267 469.493 106.644 468.425 105.285C468.388 105.227 468.336 105.179 468.276 105.144C468.216 105.109 468.149 105.089 468.079 105.086Z" fill="white"/>
<path opacity="0.2" d="M455.446 130.352C455.514 130.346 455.58 130.322 455.636 130.282C455.692 130.242 455.737 130.188 455.765 130.126C456.713 127.483 456.69 124.588 455.699 121.961C456.616 122.719 457.507 123.49 458.358 124.261C457.606 125.861 457.313 127.639 457.513 129.395C457.713 131.152 458.397 132.818 459.489 134.208C459.532 134.262 459.589 134.304 459.653 134.331C459.717 134.357 459.787 134.366 459.856 134.358C459.925 134.35 459.991 134.325 460.048 134.285C460.104 134.245 460.15 134.191 460.18 134.128C461.147 131.404 461.085 128.42 460.007 125.737C461.204 126.837 462.334 127.914 463.398 128.969C462.613 130.578 462.297 132.376 462.488 134.157C462.678 135.938 463.367 137.629 464.475 139.035C464.519 139.089 464.576 139.131 464.64 139.158C464.704 139.184 464.774 139.194 464.843 139.186C464.912 139.178 464.978 139.152 465.034 139.112C465.091 139.072 465.137 139.018 465.167 138.956C466.136 136.23 466.069 133.244 464.981 130.565C466.556 132.176 468.047 133.867 469.449 135.631C469.86 137.239 470.67 138.717 471.804 139.928C472.939 141.139 474.361 142.044 475.938 142.559C476.002 142.572 476.068 142.569 476.131 142.551C476.194 142.532 476.251 142.499 476.297 142.453C476.343 142.404 476.377 142.344 476.395 142.28C476.414 142.215 476.417 142.147 476.404 142.081C475.22 136.203 470.872 135.179 469.994 135.033C469.382 134.248 468.664 133.384 467.813 132.373C469.894 133.318 472.216 133.596 474.462 133.171C474.527 133.154 474.587 133.12 474.636 133.074C474.685 133.027 474.721 132.969 474.741 132.905C474.76 132.838 474.761 132.768 474.744 132.7C474.728 132.633 474.695 132.571 474.648 132.519C473.515 131.207 472.033 130.241 470.374 129.736C468.715 129.23 466.946 129.203 465.273 129.66C464.528 128.889 463.731 128.091 462.893 127.28C465.703 128.098 468.71 127.92 471.404 126.775C471.468 126.742 471.522 126.693 471.559 126.632C471.597 126.571 471.617 126.501 471.616 126.429C471.621 126.36 471.605 126.291 471.573 126.229C471.54 126.168 471.49 126.118 471.43 126.083C469.91 125.137 468.169 124.605 466.38 124.54C464.591 124.474 462.816 124.878 461.231 125.711C460.114 124.674 458.943 123.623 457.72 122.572C460.448 123.793 463.529 123.968 466.377 123.065C466.441 123.04 466.497 122.999 466.54 122.945C466.582 122.891 466.608 122.827 466.616 122.759C466.628 122.689 466.621 122.618 466.595 122.552C466.569 122.486 466.526 122.429 466.47 122.386C465.072 121.25 463.385 120.523 461.598 120.289C459.812 120.054 457.995 120.32 456.35 121.056C456.32 121.05 456.288 121.05 456.257 121.056C456.219 121.1 456.187 121.149 456.164 121.203L454.661 119.979C454.62 119.918 454.559 119.871 454.488 119.846C453.691 119.208 452.879 118.517 452.055 117.958C451.983 117.896 451.891 117.862 451.796 117.862C451.701 117.862 451.609 117.896 451.536 117.958V117.958C451.473 118.043 451.446 118.149 451.461 118.254C451.476 118.359 451.531 118.453 451.616 118.517L453.877 120.259C453.183 121.844 452.932 123.587 453.149 125.303C453.367 127.019 454.046 128.645 455.113 130.006C455.126 130.091 455.165 130.17 455.224 130.232C455.284 130.294 455.361 130.336 455.446 130.352V130.352Z" fill="white"/>
</g>
<path d="M461.284 141.788L372.187 150.777C369.811 151.019 367.628 152.194 366.117 154.044C364.606 155.894 363.891 158.267 364.129 160.644L367.187 191.11C369.508 189.465 372.219 188.458 375.05 188.189C377.881 187.919 380.734 188.397 383.323 189.574C385.912 190.751 388.147 192.587 389.805 194.898C391.463 197.208 392.486 199.914 392.772 202.743C393.058 205.573 392.597 208.428 391.435 211.024C390.273 213.62 388.451 215.866 386.149 217.537C383.848 219.209 381.149 220.248 378.321 220.55C375.494 220.853 372.636 220.408 370.033 219.262L373.105 249.727C373.35 252.103 374.525 254.286 376.374 255.798C378.223 257.31 380.595 258.03 382.972 257.799L472.069 248.823C474.446 248.575 476.628 247.396 478.14 245.546C479.652 243.695 480.371 241.321 480.141 238.943L471.164 149.846C470.913 147.472 469.733 145.293 467.883 143.783C466.032 142.274 463.661 141.557 461.284 141.788V141.788Z" fill="#FF6780"/>
<path d="M461.284 141.788L372.187 150.777C369.811 151.019 367.628 152.194 366.117 154.044C364.606 155.894 363.891 158.267 364.129 160.644L367.187 191.11C369.508 189.465 372.219 188.458 375.05 188.189C377.881 187.919 380.734 188.397 383.323 189.574C385.912 190.751 388.147 192.587 389.805 194.898C391.463 197.208 392.486 199.914 392.772 202.743C393.058 205.573 392.597 208.428 391.435 211.024C390.273 213.62 388.451 215.866 386.149 217.537C383.848 219.209 381.149 220.248 378.321 220.55C375.494 220.853 372.636 220.408 370.033 219.262L373.105 249.727C373.35 252.103 374.525 254.286 376.374 255.798C378.223 257.31 380.595 258.03 382.972 257.799L472.069 248.823C474.446 248.575 476.628 247.396 478.14 245.546C479.652 243.695 480.371 241.321 480.141 238.943L471.164 149.846C470.913 147.472 469.733 145.293 467.883 143.783C466.032 142.274 463.661 141.557 461.284 141.788V141.788Z" fill="#FF6780"/>
<path d="M485.592 169.114L481.47 167.319L471.789 169.792C470.679 170.083 469.697 170.733 468.996 171.641L466.948 174.3C466.512 174.883 466.291 175.599 466.322 176.326C466.354 177.053 466.636 177.747 467.121 178.29L469.435 180.843C469.99 181.451 470.76 181.819 471.582 181.869C472.404 181.918 473.212 181.646 473.837 181.109L479.089 176.601C479.089 176.601 485.419 173.635 485.592 169.114Z" fill="#FED4C2"/>
<path d="M401.669 152.506L405.951 151.961C406.528 151.896 407.068 151.643 407.488 151.242C407.908 150.841 408.185 150.314 408.278 149.74L408.863 146.336C408.941 145.931 408.924 145.513 408.812 145.115C408.701 144.717 408.499 144.351 408.221 144.045C407.944 143.74 407.599 143.503 407.214 143.353C406.829 143.204 406.415 143.146 406.004 143.184L401.004 143.543C400.3 143.581 399.641 143.897 399.17 144.42C398.698 144.944 398.454 145.633 398.49 146.336L398.623 149.926C398.631 150.304 398.718 150.676 398.88 151.017C399.042 151.358 399.275 151.66 399.563 151.904C399.851 152.148 400.188 152.328 400.551 152.432C400.914 152.536 401.295 152.561 401.669 152.506Z" fill="#FED4C2"/>
<path d="M468.306 54.7792C457.747 60.0984 439.196 57.6516 439.196 57.6516C439.196 57.6516 449.542 40.7365 468.306 54.7792Z" fill="#0A1B35"/>
<path d="M282.508 392.175L277.202 419.795L263.771 416.55L269.077 388.93L282.508 392.175Z" fill="#FED4C2"/>
<path d="M264.197 410.938L279.13 414.183C279.362 414.228 279.568 414.359 279.708 414.548C279.848 414.737 279.913 414.973 279.888 415.207L278.851 426.178C278.817 426.453 278.725 426.718 278.583 426.956C278.44 427.194 278.25 427.4 278.023 427.56C277.797 427.72 277.539 427.832 277.267 427.887C276.995 427.942 276.715 427.939 276.444 427.88C271.75 426.776 270.354 426.085 264.409 424.795C257.481 423.266 255.021 423.678 246.883 421.896C241.962 420.819 242.188 415.659 244.396 415.646C250.226 415.66 255.956 414.132 261.005 411.218C261.995 410.722 263.136 410.622 264.197 410.938V410.938Z" fill="#0A1B35"/>
<path opacity="0.2" d="M282.521 392.188L279.781 406.417L266.337 403.172L269.076 388.93L282.521 392.188Z" fill="#334D74"/>
<path d="M305.885 285.804C321.643 239.447 334.117 184.739 334.117 184.739L289.17 181.894C289.17 181.894 282.521 252.878 279.09 285.618C275.499 319.634 264.342 396.43 264.342 396.43L284.622 400.539C284.622 400.539 303.638 328.225 305.885 285.804Z" fill="#0A1B35"/>
<path opacity="0.2" d="M313.385 210.537L324.289 224.021C321.51 234.433 318.265 246.135 314.702 258.09C312.656 242.324 312.215 226.392 313.385 210.537V210.537Z" fill="#0A1B35"/>
<path d="M264.635 399.316L283.253 403.385C283.624 403.468 284.012 403.41 284.344 403.223C284.675 403.037 284.926 402.735 285.048 402.374L287.096 396.377C287.167 396.174 287.194 395.958 287.176 395.744C287.157 395.529 287.094 395.321 286.99 395.133C286.886 394.945 286.743 394.781 286.571 394.651C286.399 394.522 286.202 394.43 285.992 394.382L265.792 389.662C265.58 389.611 265.359 389.607 265.145 389.648C264.931 389.689 264.727 389.776 264.549 389.901C264.37 390.027 264.221 390.189 264.109 390.377C263.998 390.565 263.928 390.774 263.904 390.991L263.439 397.64C263.397 398.018 263.496 398.398 263.717 398.707C263.937 399.016 264.265 399.233 264.635 399.316V399.316Z" fill="#0A1B35"/>
<path opacity="0.1" d="M264.635 399.316L283.253 403.385C283.624 403.468 284.012 403.41 284.344 403.223C284.675 403.037 284.926 402.735 285.048 402.374L287.096 396.377C287.167 396.174 287.194 395.958 287.176 395.744C287.157 395.529 287.094 395.321 286.99 395.133C286.886 394.945 286.743 394.781 286.571 394.651C286.399 394.522 286.202 394.43 285.992 394.382L265.792 389.662C265.58 389.611 265.359 389.607 265.145 389.648C264.931 389.689 264.727 389.776 264.549 389.901C264.37 390.027 264.221 390.189 264.109 390.377C263.998 390.565 263.928 390.774 263.904 390.991L263.439 397.64C263.397 398.018 263.496 398.398 263.717 398.707C263.937 399.016 264.265 399.233 264.635 399.316V399.316Z" fill="white"/>
<path d="M356.444 391.217L357.282 419.715L343.651 419.528L342.813 391.031L356.444 391.217Z" fill="#FED4C2"/>
<path d="M343.306 413.678L357.8 413.89C358.035 413.889 358.263 413.976 358.437 414.133C358.612 414.291 358.721 414.507 358.745 414.741L359.915 425.699C359.937 425.976 359.901 426.255 359.809 426.518C359.717 426.78 359.572 427.021 359.381 427.224C359.191 427.427 358.96 427.587 358.704 427.696C358.448 427.804 358.172 427.858 357.893 427.853C353.08 427.707 351.564 427.308 345.486 427.215C338.385 427.095 336.856 427.986 328.532 427.867C323.492 427.787 322.68 422.68 324.835 422.228C330.555 421.085 335.871 418.452 340.247 414.595C341.113 413.911 342.206 413.583 343.306 413.678V413.678Z" fill="#0A1B35"/>
<path opacity="0.2" d="M356.457 391.23L356.883 405.911L343.239 405.725L342.813 391.031L356.457 391.23Z" fill="#334D74"/>
<path d="M353.053 284.861C349.196 236.097 352.454 209.794 346.789 185.578L305.885 183.038C305.885 183.038 318.584 254.714 325.592 287.135C332.6 319.555 340.14 398.306 340.14 398.306L360.247 398.559C360.247 398.559 362.707 322.906 353.053 284.861Z" fill="#0A1B35"/>
<path d="M340.194 401.922L359.223 402.214C359.617 402.219 359.997 402.072 360.286 401.805C360.576 401.538 360.752 401.171 360.779 400.778L361.191 394.502C361.208 394.294 361.181 394.086 361.114 393.889C361.047 393.692 360.941 393.511 360.802 393.356C360.662 393.202 360.493 393.078 360.304 392.991C360.115 392.905 359.91 392.857 359.702 392.853L338.997 392.214C338.767 392.206 338.538 392.25 338.327 392.343C338.116 392.435 337.929 392.574 337.779 392.749C337.629 392.925 337.521 393.131 337.463 393.354C337.404 393.577 337.397 393.81 337.441 394.036L338.771 400.685C338.842 401.018 339.019 401.318 339.276 401.541C339.532 401.764 339.855 401.898 340.194 401.922V401.922Z" fill="#0A1B35"/>
<path opacity="0.1" d="M340.194 401.922L359.223 402.214C359.617 402.219 359.997 402.072 360.286 401.805C360.576 401.538 360.752 401.171 360.779 400.778L361.191 394.502C361.208 394.294 361.181 394.086 361.114 393.889C361.047 393.692 360.941 393.511 360.802 393.356C360.662 393.202 360.493 393.078 360.304 392.991C360.115 392.905 359.91 392.857 359.702 392.853L338.997 392.214C338.767 392.206 338.538 392.25 338.327 392.343C338.116 392.435 337.929 392.574 337.779 392.749C337.629 392.925 337.521 393.131 337.463 393.354C337.404 393.577 337.397 393.81 337.441 394.036L338.771 400.685C338.842 401.018 339.019 401.318 339.276 401.541C339.532 401.764 339.855 401.898 340.194 401.922V401.922Z" fill="white"/>
<path d="M304.569 108.023C302.999 111.414 301.364 114.419 299.582 117.518C297.8 120.616 295.925 123.622 293.85 126.574C291.753 129.622 289.461 132.531 286.989 135.284C284.245 138.453 281.029 141.18 277.454 143.369L276.989 143.635C276.194 144.103 275.308 144.397 274.392 144.498C273.475 144.598 272.547 144.504 271.669 144.22C269.076 143.382 266.563 142.438 264.103 141.428C261.643 140.417 259.249 139.3 256.895 138.13C254.541 136.96 252.241 135.723 249.98 134.393C247.72 133.063 245.512 131.733 243.331 130.124C242.55 129.571 241.987 128.762 241.739 127.837C241.491 126.913 241.574 125.931 241.973 125.06C242.372 124.19 243.062 123.487 243.924 123.071C244.786 122.655 245.767 122.554 246.696 122.784H246.842C249.222 123.356 251.682 124.047 254.076 124.672L261.27 126.574C263.651 127.225 266.044 127.771 268.398 128.356C270.752 128.941 273.105 129.393 275.419 129.872L269.688 130.736C271.679 129.085 273.465 127.201 275.007 125.124C276.829 122.784 278.584 120.204 280.326 117.544C282.068 114.885 283.651 112.106 285.22 109.286C286.789 106.467 288.385 103.555 289.794 100.869L289.874 100.722C290.934 98.9572 292.62 97.6559 294.597 97.0776C296.573 96.4994 298.695 96.6867 300.539 97.6022C302.383 98.5177 303.815 100.094 304.55 102.018C305.284 103.942 305.267 106.071 304.502 107.983L304.569 108.023Z" fill="#FED4C2"/>
<path d="M307.84 84.7789C291.962 86.5874 279.914 111.175 279.914 111.175L296.297 128.609C296.297 128.609 303.598 119.912 311.444 108.915C320.008 96.9332 320.406 83.356 307.84 84.7789Z" fill="#FFEAAD"/>
<path d="M305.885 88.4615C311.989 86.2939 339.329 89.7913 339.329 89.7913C334.01 96.653 329.569 153.475 329.077 186.135C323.265 186.933 300.978 185.404 295.832 184.207C296.496 171.388 301.842 111.254 305.885 88.4615Z" fill="white"/>
<path d="M288.238 105.695C288.955 99.7861 291.818 94.3463 296.282 90.4091C300.747 86.4719 306.502 84.3116 312.454 84.3386C323.878 84.43 335.262 85.6865 346.43 88.0887C348.17 88.4569 349.818 89.1701 351.277 90.1863C352.736 91.2024 353.976 92.5009 354.925 94.0047C355.873 95.5086 356.51 97.1874 356.799 98.9419C357.087 100.696 357.021 102.491 356.603 104.219C348.186 139.525 350.407 173.023 348.159 188.608C340.147 191.554 331.637 192.909 323.106 192.598C323.106 192.598 323.305 179.153 325.18 156.454C326.67 138.408 329.343 95.9744 334.848 88.9265C334.848 88.9265 315.114 86.2669 309.01 88.4078C304.475 114.006 301.151 191.547 301.151 191.56C291.496 190.869 286.948 185.497 287.095 183.901C285.14 152.531 286.124 124.086 288.238 105.695Z" fill="#FFEAAD"/>
<path d="M335.553 66.4263C333.705 71.7455 331.563 81.1738 334.981 86.4664C335.154 86.7123 335.271 86.9935 335.323 87.2899C335.374 87.5863 335.359 87.8905 335.279 88.1805C335.199 88.4704 335.056 88.739 334.859 88.9669C334.663 89.1948 334.418 89.3763 334.143 89.4983C328.65 92.6669 322.302 94.0342 315.992 93.4079C307.414 92.7164 308.013 88.8467 310.22 86.3334C310.742 85.753 311.464 85.3918 312.242 85.3227C320.34 84.352 320.42 79.4716 319.25 74.6843L335.553 66.4263Z" fill="#FED4C2"/>
<path opacity="0.2" d="M328.904 69.8174L319.263 74.7243C319.568 75.8576 319.742 77.0222 319.782 78.1951C323.292 78.1951 328.266 75.8414 328.838 73.1419C329.132 72.0559 329.154 70.9143 328.904 69.8174V69.8174Z" fill="#334D74"/>
<path d="M322.696 47.9388C323.058 43.1419 320.449 39.034 316.868 38.7635C313.287 38.4929 310.09 42.1623 309.727 46.9591C309.365 51.7559 311.974 55.8638 315.556 56.1344C319.137 56.4049 322.334 52.7356 322.696 47.9388Z" fill="#0A1B35"/>
<path d="M340.766 51.8925C338.984 62.3846 338.466 68.6213 332.641 73.5017C323.878 80.8289 311.577 74.632 310.247 63.8208C309.037 54.0999 312.149 38.5546 322.761 35.4162C333.373 32.2779 342.548 41.387 340.766 51.8925Z" fill="#FED4C2"/>
<path d="M338.479 60.7621C338.346 60.7621 338.187 60.5892 338.04 60.669C333.28 63.3286 331.737 57.6105 332.03 53.8072C332.127 52.5385 332.492 51.3047 333.099 50.1864C333.706 49.0681 334.543 48.0906 335.554 47.3178C330.394 47.9029 325.394 44.5784 325.314 41.48C319.609 43.9933 312.734 44.1396 309.636 38.8204C306.538 33.5012 310.966 26.5463 316.87 28.3947C314.476 24.1128 324.596 15.5489 335.195 28.182C335.527 19.0196 350.341 28.182 347.908 37.1847C354.769 39.5518 360.647 52.5838 349.011 55.3631C348.24 67.4377 338.479 60.7621 338.479 60.7621Z" fill="#0A1B35"/>
<path d="M344.09 64.0599C342.479 66.0361 340.179 67.3286 337.654 67.6769C334.462 68.036 333.758 64.7912 335.393 61.8391C336.869 59.1795 340.3 55.8018 343.146 56.8391C345.992 57.8763 346.165 61.5332 344.09 64.0599Z" fill="#FED4C2"/>
<path d="M325.553 52.6776C325.473 53.5552 324.954 54.2068 324.383 54.1536C323.811 54.1004 323.412 53.3558 323.492 52.4781C323.571 51.6004 324.09 50.9621 324.662 51.0153C325.234 51.0685 325.619 51.8132 325.553 52.6776Z" fill="#0A1B35"/>
<path d="M315.247 51.5325C315.168 52.3969 314.649 53.0485 314.077 52.9953C313.505 52.9421 313.12 52.1974 313.186 51.3331C313.253 50.4687 313.785 49.8038 314.356 49.857C314.928 49.9102 315.38 50.6549 315.247 51.5325Z" fill="#0A1B35"/>
<path d="M319.276 52.0254C318.005 54.5748 316.39 56.9374 314.475 59.0467C315.027 59.5276 315.677 59.8826 316.379 60.087C317.082 60.2913 317.821 60.3402 318.544 60.2303L319.276 52.0254Z" fill="#E89470"/>
<path d="M321.232 64.4594C322.197 64.5272 323.167 64.3983 324.081 64.0806C324.995 63.7628 325.836 63.2629 326.551 62.611C326.575 62.5866 326.593 62.5577 326.606 62.5261C326.618 62.4945 326.624 62.4607 326.623 62.4268C326.623 62.3928 326.616 62.3593 326.602 62.3282C326.588 62.297 326.569 62.2689 326.544 62.2453C326.52 62.2217 326.491 62.2032 326.459 62.1908C326.428 62.1783 326.394 62.1723 326.36 62.1729C326.326 62.1735 326.293 62.1808 326.262 62.1944C326.23 62.2079 326.202 62.2275 326.179 62.2519C325.369 62.9685 324.401 63.483 323.354 63.7535C322.307 64.0239 321.21 64.0425 320.155 63.8078C320.122 63.8001 320.089 63.7992 320.056 63.8053C320.023 63.8113 319.992 63.8241 319.964 63.8429C319.937 63.8617 319.913 63.886 319.896 63.9143C319.878 63.9426 319.867 63.9743 319.862 64.0073C319.85 64.0741 319.864 64.143 319.901 64.1999C319.938 64.2567 319.996 64.2973 320.062 64.3131C320.487 64.3796 320.859 64.4328 321.232 64.4594Z" fill="#0A1B35"/>
<path d="M328.957 50.5627C329.04 50.582 329.127 50.582 329.21 50.5627C329.271 50.5355 329.327 50.4961 329.373 50.4471C329.42 50.398 329.456 50.3401 329.479 50.2769C329.503 50.2137 329.513 50.1464 329.51 50.079C329.508 50.0116 329.491 49.9455 329.462 49.8845C329.15 49.1322 328.665 48.4642 328.045 47.9351C327.426 47.4059 326.69 47.0304 325.899 46.8393C325.765 46.82 325.629 46.8537 325.52 46.9332C325.41 47.0127 325.336 47.1317 325.313 47.2648C325.294 47.3986 325.328 47.5346 325.407 47.6438C325.487 47.7531 325.606 47.8271 325.739 47.85V47.85C326.363 48.011 326.941 48.3162 327.426 48.7412C327.911 49.1661 328.29 49.6989 328.532 50.2968C328.576 50.3719 328.638 50.4353 328.712 50.4816C328.786 50.5279 328.87 50.5557 328.957 50.5627Z" fill="#0A1B35"/>
<path d="M310.925 47.2915C311.008 47.3135 311.094 47.3153 311.178 47.2968C311.261 47.2783 311.339 47.24 311.404 47.1852C311.878 46.7557 312.446 46.444 313.063 46.2754C313.68 46.1067 314.328 46.0858 314.955 46.2144C315.083 46.2513 315.222 46.2357 315.339 46.1709C315.456 46.106 315.543 45.9973 315.58 45.8686C315.617 45.7382 315.602 45.5982 315.537 45.4789C315.472 45.3596 315.364 45.2703 315.234 45.2303C314.443 45.0501 313.62 45.0636 312.835 45.2697C312.05 45.4757 311.327 45.8683 310.726 46.4139C310.678 46.4609 310.641 46.5168 310.615 46.5784C310.589 46.64 310.576 46.7061 310.576 46.7729C310.576 46.8397 310.589 46.9058 310.615 46.9674C310.641 47.029 310.678 47.085 310.726 47.1319C310.777 47.2022 310.846 47.2574 310.925 47.2915V47.2915Z" fill="#0A1B35"/>
<path d="M359.769 103.502C360.634 105.191 361.338 106.654 362.03 108.236C362.721 109.819 363.36 111.348 364.051 112.917C365.381 116.055 366.538 119.247 367.628 122.478C369.846 129.014 371.545 135.715 372.708 142.518L373.067 145.178L373.253 146.508V146.827V147.412C373.253 147.838 373.32 148.263 373.32 148.742C373.268 151.166 372.787 153.561 371.897 155.816C370.573 159.26 368.888 162.554 366.87 165.644C365.039 168.535 363.055 171.327 360.926 174.008C358.84 176.676 356.621 179.237 354.277 181.681C353.604 182.394 352.696 182.842 351.721 182.943C350.745 183.043 349.765 182.79 348.96 182.23C348.155 181.67 347.578 180.839 347.333 179.889C347.089 178.939 347.194 177.933 347.628 177.053V176.947C350.381 171.215 353.293 165.418 355.607 159.766C356.205 158.356 356.737 156.947 357.203 155.577C357.666 154.298 358.052 152.993 358.36 151.667C358.575 150.844 358.652 149.99 358.586 149.141C358.586 149.141 358.586 149.221 358.586 149.141L358.519 148.875L358.267 147.771L357.775 145.577C356.241 139.622 354.362 133.761 352.15 128.024C351.086 125.098 349.876 122.212 348.705 119.313C348.12 117.877 347.495 116.441 346.87 115.018L345.009 110.869L344.902 110.63C343.968 108.672 343.849 106.424 344.572 104.379C345.295 102.334 346.801 100.66 348.759 99.7254C350.716 98.7908 352.964 98.672 355.009 99.3952C357.054 100.118 358.728 101.624 359.663 103.582L359.769 103.502Z" fill="#FED4C2"/>
<path d="M347.801 88.4627C365.513 92.9308 370.407 115.577 370.407 115.577L348.412 131.349C348.412 131.349 342.96 125.644 341.311 112.24C340.553 105.843 344.21 88.2898 347.801 88.4627Z" fill="#FFEAAD"/>
<path d="M350.528 174.233L340.288 178.063L348.134 188.569C348.134 188.569 356.977 183.981 355.302 178.888L350.528 174.233Z" fill="#FED4C2"/>
<path d="M332.668 179.553C329.91 179.089 327.079 179.345 324.449 180.297L329.529 150.111C329.922 147.754 329.364 145.337 327.978 143.39C326.592 141.443 324.491 140.125 322.135 139.725L233.837 124.858C231.484 124.469 229.072 125.026 227.129 126.409C225.185 127.792 223.868 129.888 223.464 132.238L218.305 162.491C220.931 161.527 223.766 161.27 226.523 161.747C228.975 162.158 231.3 163.126 233.318 164.577C235.337 166.028 236.996 167.923 238.168 170.116C239.339 172.309 239.992 174.741 240.075 177.226C240.159 179.711 239.671 182.182 238.65 184.448C237.629 186.715 236.101 188.717 234.184 190.301C232.267 191.884 230.013 193.007 227.594 193.582C225.176 194.157 222.657 194.17 220.233 193.619C217.809 193.068 215.543 191.968 213.61 190.404L208.517 220.59C208.125 222.947 208.682 225.364 210.068 227.311C211.454 229.258 213.555 230.576 215.911 230.976L304.21 245.843C306.565 246.233 308.978 245.675 310.923 244.293C312.869 242.91 314.189 240.814 314.596 238.463L319.675 208.263C321.61 209.802 323.871 210.88 326.285 211.413C328.699 211.947 331.203 211.923 333.606 211.343C336.01 210.762 338.249 209.641 340.154 208.065C342.058 206.489 343.578 204.498 344.597 202.246C345.617 199.993 346.109 197.538 346.036 195.067C345.963 192.595 345.327 190.173 344.176 187.985C343.026 185.796 341.391 183.899 339.397 182.438C337.402 180.977 335.101 179.99 332.668 179.553Z" fill="#FFCF46"/>
<path opacity="0.6" d="M332.668 179.553C329.91 179.089 327.079 179.345 324.449 180.297L329.529 150.111C329.922 147.754 329.364 145.337 327.978 143.39C326.592 141.443 324.491 140.125 322.135 139.725L233.837 124.858C231.484 124.469 229.072 125.026 227.129 126.409C225.185 127.792 223.868 129.888 223.464 132.238L218.305 162.491C220.931 161.527 223.766 161.27 226.523 161.747C228.975 162.158 231.3 163.126 233.318 164.577C235.337 166.028 236.996 167.923 238.168 170.116C239.339 172.309 239.992 174.741 240.075 177.226C240.159 179.711 239.671 182.182 238.65 184.448C237.629 186.715 236.101 188.717 234.184 190.301C232.267 191.884 230.013 193.007 227.594 193.582C225.176 194.157 222.657 194.17 220.233 193.619C217.809 193.068 215.543 191.968 213.61 190.404L208.517 220.59C208.125 222.947 208.682 225.364 210.068 227.311C211.454 229.258 213.555 230.576 215.911 230.976L304.21 245.843C306.565 246.233 308.978 245.675 310.923 244.293C312.869 242.91 314.189 240.814 314.596 238.463L319.675 208.263C321.61 209.802 323.871 210.88 326.285 211.413C328.699 211.947 331.203 211.923 333.606 211.343C336.01 210.762 338.249 209.641 340.154 208.065C342.058 206.489 343.578 204.498 344.597 202.246C345.617 199.993 346.109 197.538 346.036 195.067C345.963 192.595 345.327 190.173 344.176 187.985C343.026 185.796 341.391 183.899 339.397 182.438C337.402 180.977 335.101 179.99 332.668 179.553Z" fill="#FFCF46"/>
<path d="M335.499 188.383L338.864 191.601C339.511 192.224 340.36 192.596 341.256 192.649C342.153 192.703 343.04 192.435 343.757 191.894L348.132 188.609L340.286 178.104L335.433 182.971C335.075 183.327 334.793 183.751 334.603 184.218C334.412 184.686 334.317 185.186 334.324 185.691C334.33 186.195 334.437 186.693 334.639 187.156C334.841 187.618 335.133 188.035 335.499 188.383V188.383Z" fill="#FED4C2"/>
<path d="M236.921 127.691L238.144 123.157C238.349 122.623 238.716 122.167 239.193 121.852C239.67 121.538 240.233 121.38 240.804 121.401V121.401C242.537 121.331 244.266 121.597 245.897 122.186L252.812 124.739L252.48 127.558C252.2 129.978 249.501 132 246.442 132.093C244.389 132.12 242.34 131.901 240.339 131.441L239.594 131.282C239.17 131.252 238.758 131.131 238.385 130.927C238.012 130.723 237.688 130.441 237.434 130.1C237.18 129.759 237.003 129.367 236.914 128.951C236.826 128.536 236.828 128.106 236.921 127.691V127.691Z" fill="#FED4C2"/>
<path d="M127.997 65.0975C132.426 59.9512 139.088 46.5867 126.561 41.4803C117.319 37.7036 97.7044 39.6318 86.441 57.1719C78.7415 59.8315 76.4675 76.9593 94.247 80.5631C112.026 84.1668 127.997 65.0975 127.997 65.0975Z" fill="#0A1B35"/>
<path d="M168.17 395.087L147.851 396.776L151.295 420.659L168.277 419.276L168.17 395.087Z" fill="#FED4C2"/>
<path opacity="0.2" d="M168.17 395.101L147.837 396.79L149.778 410.168L168.236 408.638L168.17 395.101Z" fill="#334D74"/>
<path d="M129.326 324.781C121.348 294.195 100.682 257.785 113.781 228.357L170.71 228.184C170.71 228.184 172.119 288.756 172.518 317.281C172.917 347.108 170.431 403.226 170.431 403.226L147.146 404.994C147.146 404.994 131.188 359.076 129.326 324.781Z" fill="#55A1FF"/>
<path d="M145.989 405.913L171.148 404.064C171.363 404.046 171.564 403.951 171.715 403.798C171.866 403.644 171.958 403.442 171.973 403.227L172.505 393.918C172.514 393.789 172.494 393.659 172.447 393.539C172.4 393.418 172.326 393.31 172.232 393.221C172.138 393.132 172.026 393.065 171.903 393.024C171.78 392.984 171.649 392.971 171.521 392.987L143.595 396.697C143.468 396.711 143.346 396.753 143.237 396.82C143.128 396.886 143.035 396.976 142.965 397.083C142.896 397.19 142.85 397.311 142.832 397.437C142.815 397.564 142.825 397.693 142.864 397.814L145.071 405.288C145.133 405.479 145.256 405.645 145.423 405.758C145.589 405.871 145.788 405.926 145.989 405.913V405.913Z" fill="#0A1B35"/>
<path opacity="0.2" d="M113.582 257.307C113.362 264.531 113.655 271.761 114.46 278.943C117.239 288.557 120.79 298.185 123.981 307.52C128.157 281.084 128.17 250.272 113.582 257.307Z" fill="#334D74"/>
<path d="M92.9565 396.576L72.5574 396.776L72.5308 420.845L89.5788 420.712L92.9565 396.576Z" fill="#FED4C2"/>
<path d="M70.9217 417.149C70.9418 417.015 70.9896 416.886 71.0623 416.772C71.1349 416.658 71.2306 416.56 71.3434 416.485C71.4561 416.409 71.5833 416.359 71.7168 416.336C71.8503 416.313 71.9872 416.318 72.1186 416.351C77.2383 418.386 86.9458 416.83 90.6161 416.125C91.0212 416.041 91.4392 416.042 91.8441 416.126C92.249 416.211 92.6321 416.378 92.9698 416.617C95.972 418.543 99.2251 420.046 102.637 421.085C103.37 423.042 103.553 425.162 103.169 427.215H68.7808C69.751 423.92 70.4668 420.554 70.9217 417.149V417.149Z" fill="#0A1B35"/>
<path d="M149.048 417.149C149.068 417.015 149.116 416.886 149.188 416.772C149.261 416.658 149.357 416.56 149.469 416.485C149.582 416.409 149.709 416.359 149.843 416.336C149.976 416.313 150.113 416.318 150.245 416.351C155.364 418.386 165.072 416.83 168.742 416.125C169.147 416.041 169.565 416.042 169.97 416.126C170.375 416.211 170.758 416.378 171.096 416.617C175.005 419.383 185.431 421.085 185.431 421.085C186.163 423.042 186.343 425.163 185.95 427.215H146.907C147.877 423.92 148.593 420.554 149.048 417.149V417.149Z" fill="#0A1B35"/>
<path opacity="0.2" d="M92.9565 396.59L72.5441 396.777L72.5308 410.261L91.0682 410.101L92.9565 396.59Z" fill="#334D74"/>
<path d="M69.6843 314.887C66.9183 283.996 58.248 242.386 68.0886 228.184H134.712C134.712 228.184 121.134 289.78 115.562 318.291C109.778 347.933 93.142 404.848 93.142 404.848L71.0806 404.915C71.0806 404.915 62.7162 350.153 69.6843 314.887Z" fill="#55A1FF"/>
<path opacity="0.2" d="M73.6868 398.598C73.5435 398.596 73.4045 398.549 73.2898 398.463C73.1752 398.377 73.0907 398.257 73.0485 398.12C71.4661 392.801 71.7187 331.696 75.7081 314.967C75.7081 312.76 75.2427 308.425 74.7108 302.933C72.889 284.315 69.5113 249.741 74.5512 230.126C74.5953 229.95 74.7076 229.798 74.8635 229.705C75.0194 229.611 75.206 229.583 75.3823 229.627C75.5587 229.671 75.7103 229.784 75.8038 229.94C75.8973 230.096 75.9251 230.282 75.881 230.459C70.8943 249.86 74.2587 284.302 76.0672 302.813C76.6124 308.398 77.0512 312.8 77.0778 315.034C77.0844 315.091 77.0844 315.149 77.0778 315.207C73.248 331.031 72.8757 392.601 74.4182 397.747C74.4681 397.915 74.4501 398.095 74.3679 398.25C74.2858 398.404 74.1462 398.52 73.9794 398.572C73.8865 398.609 73.7849 398.618 73.6868 398.598Z" fill="white"/>
<path d="M69.5522 405.74H94.5391C94.7389 405.746 94.9339 405.679 95.088 405.552C95.2421 405.424 95.3448 405.246 95.3769 405.048L97.0259 396.179C97.0496 396.044 97.0432 395.906 97.007 395.775C96.9708 395.644 96.9057 395.522 96.8166 395.419C96.7274 395.316 96.6164 395.234 96.4916 395.179C96.3668 395.124 96.2313 395.097 96.095 395.101L68.8873 396.312C68.7725 396.315 68.6595 396.341 68.5555 396.39C68.4514 396.439 68.3584 396.508 68.2824 396.594C68.2063 396.68 68.1487 396.781 68.1133 396.89C68.0778 396.999 68.0651 397.115 68.0761 397.229L68.6346 404.889C68.6544 405.119 68.7594 405.334 68.929 405.492C69.0987 405.649 69.3208 405.737 69.5522 405.74V405.74Z" fill="#0A1B35"/>
<path d="M157.345 120.589C158.675 125.909 159.898 131.228 161.082 136.547C162.265 141.866 163.382 147.185 164.42 152.505L166.015 160.483L167.505 168.462C168.529 173.781 169.433 179.18 170.364 184.553L168.196 179.699C168.486 180.694 169.111 181.559 169.965 182.146C171.667 183.296 173.585 184.088 175.603 184.473C178.293 185.094 181.036 185.455 183.795 185.55C185.271 185.63 186.787 185.683 188.316 185.657C189.074 185.657 189.845 185.657 190.617 185.657C191.388 185.657 192.226 185.657 192.758 185.657L194.646 185.79C196.235 185.892 197.748 186.507 198.956 187.544C200.164 188.581 201.003 189.982 201.345 191.537C201.687 193.092 201.514 194.716 200.853 196.165C200.192 197.613 199.077 198.807 197.678 199.566C196.614 200.151 195.856 200.59 194.952 201.056C194.048 201.521 193.21 201.92 192.292 202.385C190.51 203.157 188.688 203.888 186.8 204.5C184.884 205.128 182.935 205.651 180.962 206.069C178.884 206.483 176.784 206.776 174.672 206.947C172.391 207.109 170.099 207.074 167.824 206.84C165.295 206.628 162.802 206.101 160.404 205.271C157.713 204.375 155.158 203.113 152.81 201.521C150.335 199.806 148.13 197.731 146.268 195.364C145.465 194.366 144.868 193.218 144.512 191.986L144.1 190.51C142.637 185.271 141.135 180.045 139.752 174.779L137.637 166.906L135.629 159.007C134.3 153.688 132.97 148.449 131.76 143.156C130.55 137.864 129.339 132.518 128.289 127.199C127.536 123.392 128.298 119.443 130.413 116.19C132.529 112.937 135.83 110.638 139.614 109.782C143.398 108.926 147.367 109.581 150.676 111.607C153.985 113.632 156.373 116.87 157.332 120.629L157.345 120.589Z" fill="#FED4C2"/>
<path d="M191.827 186.974L192.106 195.565C195.577 203.903 205.524 197.573 205.524 197.573L211.534 196.469C212.581 196.203 213.499 195.575 214.127 194.696C214.755 193.817 215.052 192.745 214.965 191.669L214.806 185.658C214.846 184.417 214.4 183.21 213.563 182.293C212.726 181.377 211.563 180.823 210.324 180.751L205.005 180.857C203.453 180.884 201.931 181.295 200.577 182.054L191.827 186.974Z" fill="#FED4C2"/>
<path d="M147.159 105.777C159.394 112.213 167.386 134.926 167.386 134.926C164.806 145.564 154.407 164.966 144.779 164.846C144.779 164.846 130.643 146.615 129.114 133.423C127.252 117.479 122.425 92.7713 147.159 105.777Z" fill="#0A1B35"/>
<path d="M135.857 102C116.976 100.205 97.9545 100.508 79.1407 102.904C68.2629 104.433 60.5235 111.202 61.8533 133.489C64.5129 178.703 60.3905 213.942 66.1352 230.193C66.1352 230.193 149.806 254.129 173.663 231.19C179.461 176.788 159.939 131.628 151.056 112.838C149.665 109.879 147.536 107.328 144.874 105.43C142.213 103.532 139.107 102.351 135.857 102V102Z" fill="#0A1B35"/>
<path d="M129.566 106.946C127.399 104.818 125.125 106.055 124.074 102.85C123.611 100.334 124.034 97.7355 125.271 95.4964L99.4598 81.5601C99.9651 91.0548 100.351 98.5549 96.1353 102.332C94.9119 109.406 108.103 116.467 125.67 116.574C136.854 116.64 132.692 110.004 129.566 106.946Z" fill="#FED4C2"/>
<path opacity="0.2" d="M124.885 96.2938L104.513 91.2007C109.659 99.2992 118.928 103.727 123.914 101.773C123.772 99.8937 124.106 98.0093 124.885 96.2938V96.2938Z" fill="#334D74"/>
<path d="M116.454 49.8312C102.97 46.8392 91.3212 58.0361 93.9276 70.2437C96.534 82.4512 98.5952 90.696 107.039 94.845C123.821 103.116 132.013 95.1375 133.383 82.3847C134.619 70.8952 130.138 52.8499 116.454 49.8312Z" fill="#FED4C2"/>
<path d="M95.6291 80.5622C103.169 82.2511 106.267 78.4745 106.267 74.2457C106.267 69.751 102.025 62.1578 97.3711 60.7615C99.0333 50.788 126.52 64.7509 123.901 50.9343C123.901 50.9343 123.156 48.5673 116.055 47.2375C108.954 45.9077 89.9774 50.1896 91.3072 64.3786C92.637 78.5675 95.6291 80.5622 95.6291 80.5622Z" fill="#0A1B35"/>
<path d="M86.0278 57.8764C87.8735 54.173 88.3945 49.949 87.5039 45.9082C87.5039 45.9082 95.7753 51.3737 86.0278 57.8764Z" fill="#0A1B35"/>
<path d="M120.71 84.3538C121.274 84.3113 121.834 84.2269 122.385 84.1012C122.428 84.0917 122.469 84.0739 122.505 84.0487C122.541 84.0235 122.571 83.9914 122.595 83.9543C122.618 83.9172 122.634 83.8759 122.641 83.8326C122.649 83.7893 122.648 83.745 122.638 83.7022C122.63 83.6584 122.613 83.6167 122.589 83.5798C122.564 83.5428 122.532 83.5115 122.494 83.4877C122.457 83.4639 122.415 83.4482 122.371 83.4416C122.327 83.4351 122.282 83.4378 122.239 83.4495C120.858 83.7864 119.417 83.796 118.032 83.4773C116.647 83.1587 115.355 82.5208 114.26 81.6144C114.229 81.5823 114.192 81.5567 114.151 81.5392C114.11 81.5217 114.065 81.5127 114.021 81.5127C113.976 81.5127 113.932 81.5217 113.891 81.5392C113.85 81.5567 113.812 81.5823 113.781 81.6144C113.72 81.6788 113.685 81.7646 113.685 81.8538C113.685 81.943 113.72 82.0288 113.781 82.0932C114.729 82.9102 115.829 83.5308 117.019 83.9189C118.208 84.307 119.463 84.4548 120.71 84.3538Z" fill="#0A1B35"/>
<path d="M90.8558 81.1483C91.7187 82.3181 92.8044 83.3057 94.0505 84.0543C95.2966 84.8029 96.6784 85.2976 98.1165 85.51C101.986 86.042 103.436 82.4648 101.946 79.0871C100.617 76.0419 96.9994 72.1057 93.3292 73.1163C89.6589 74.127 88.7547 78.236 90.8558 81.1483Z" fill="#FED4C2"/>
<path d="M116.003 71.6399C116.162 72.717 116.854 73.5149 117.558 73.4085C118.263 73.3021 118.715 72.3314 118.556 71.2542C118.396 70.1771 117.718 69.3925 117.013 69.4989C116.308 69.6053 115.91 70.5096 116.003 71.6399Z" fill="#0A1B35"/>
<path d="M128.676 69.9381C128.835 71.0285 129.527 71.8131 130.232 71.7067C130.937 71.6003 131.389 70.6429 131.229 69.5657C131.07 68.4886 130.391 67.6907 129.687 67.7971C128.982 67.9035 128.53 68.861 128.676 69.9381Z" fill="#0A1B35"/>
<path d="M123.888 71.3604L124.5 80.4828C124.5 80.4828 127.492 81.0014 129.114 79.2727C128.084 76.2284 126.284 73.5025 123.888 71.3604V71.3604Z" fill="#E89470"/>
<path d="M111.827 69.1803C111.718 69.21 111.603 69.2096 111.495 69.1792C111.386 69.1488 111.288 69.0896 111.21 69.0077C111.132 68.9259 111.078 68.8246 111.053 68.7145C111.029 68.6044 111.034 68.4897 111.069 68.3825C111.322 67.3939 111.806 66.4795 112.481 65.7143C113.156 64.9491 114.003 64.355 114.952 63.9808C115.113 63.9306 115.287 63.9457 115.436 64.0229C115.585 64.1001 115.698 64.2331 115.75 64.3931C115.801 64.5553 115.786 64.731 115.709 64.8825C115.632 65.0341 115.499 65.1495 115.338 65.2042V65.2042C114.588 65.5099 113.922 65.9885 113.393 66.6009C112.863 67.2134 112.486 67.9423 112.293 68.7282C112.263 68.8383 112.204 68.9383 112.122 69.0178C112.04 69.0973 111.938 69.1535 111.827 69.1803V69.1803Z" fill="#0A1B35"/>
<path d="M132.837 65.0974C132.732 65.1071 132.626 65.0888 132.53 65.0445C132.435 65.0001 132.352 64.9312 132.292 64.8447C131.836 64.1842 131.229 63.6426 130.521 63.2654C129.813 62.8883 129.025 62.6865 128.223 62.6772C128.046 62.6772 127.877 62.6071 127.752 62.4824C127.628 62.3577 127.558 62.1886 127.558 62.0123C127.558 61.8359 127.628 61.6668 127.752 61.5421C127.877 61.4174 128.046 61.3474 128.223 61.3474C129.236 61.3393 130.235 61.577 131.136 62.0403C132.037 62.5035 132.813 63.1784 133.395 64.007C133.444 64.0751 133.479 64.1521 133.498 64.2338C133.518 64.3154 133.52 64.4 133.507 64.4828C133.493 64.5655 133.464 64.6447 133.419 64.716C133.375 64.7872 133.317 64.849 133.249 64.8979C133.198 64.9578 133.135 65.0064 133.064 65.0407C132.993 65.0751 132.916 65.0943 132.837 65.0974V65.0974Z" fill="#0A1B35"/>
<path d="M210.325 152.066C207.541 152.262 204.855 153.178 202.532 154.725L200.125 124.14C199.928 121.761 198.799 119.556 196.983 118.006C195.167 116.457 192.811 115.688 190.431 115.869L101.161 122.903C98.7836 123.103 96.5809 124.234 95.0321 126.049C93.4833 127.865 92.7135 130.218 92.8901 132.597L99.938 221.867C100.128 224.249 101.256 226.458 103.073 228.009C104.891 229.56 107.25 230.326 109.632 230.138L198.888 223.09C201.27 222.897 203.478 221.769 205.03 219.952C206.583 218.136 207.353 215.779 207.173 213.396L204.753 182.877C207.287 184.065 210.088 184.569 212.878 184.34C216.885 183.666 220.493 181.515 222.993 178.311C225.492 175.108 226.701 171.084 226.38 167.034C226.06 162.983 224.234 159.2 221.262 156.429C218.29 153.659 214.388 152.102 210.325 152.066V152.066Z" fill="#55A1FF"/>
<path d="M80.8819 139.858L79.5521 142.305L78.0229 145.045C77.0388 146.906 76.0281 148.768 75.1106 150.656C73.2667 154.336 71.6155 158.109 70.1637 161.96C69.4589 163.821 68.8339 165.67 68.3685 167.492C67.8375 169.236 67.42 171.013 67.1185 172.811C66.5605 175.703 66.4662 178.666 66.8392 181.587L63.7807 176.268C65.0541 178.015 66.5723 179.569 68.2887 180.883C70.5449 182.683 72.9122 184.34 75.3765 185.843C77.9431 187.492 80.6957 189.074 83.4617 190.657L87.6905 193.01C89.0203 193.808 90.6161 194.606 91.8794 195.377L92.5177 195.763C93.9294 196.619 95.0206 197.915 95.6234 199.451C96.2262 200.988 96.3071 202.68 95.8536 204.268C95.4001 205.855 94.4374 207.249 93.1137 208.235C91.7901 209.222 90.1789 209.745 88.5283 209.726C86.507 209.726 84.7782 209.593 82.9165 209.447C81.0548 209.3 79.2862 209.074 77.4776 208.782C73.802 208.23 70.1645 207.448 66.5866 206.441C62.7999 205.38 59.108 204.006 55.5492 202.332C51.3423 200.395 47.4759 197.79 44.0996 194.62C42.8848 193.461 41.9717 192.023 41.44 190.431L41.0677 189.287C38.9854 182.971 38.2073 176.298 38.7804 169.672C39.2322 163.901 40.3386 158.199 42.0784 152.678C43.6984 147.489 45.7077 142.43 48.089 137.544C49.246 135.151 50.4295 132.784 51.7593 130.483C52.4109 129.326 53.0891 128.169 53.7806 127.026L54.871 125.297L55.4428 124.419L56.1343 123.395C58.2707 120.163 61.5838 117.891 65.3691 117.063C69.1544 116.235 73.1134 116.916 76.4042 118.962C79.6951 121.007 82.0583 124.256 82.9913 128.017C83.9244 131.777 83.3537 135.754 81.4005 139.1L80.8819 139.858Z" fill="#FED4C2"/>
<path d="M70.4962 105.776C48.4481 117.558 40.23 143.875 40.23 143.875C44.5917 152.186 70.8952 161.162 80.7889 158.716C80.7889 158.716 90.2704 141.428 92.2252 125.976C94.0337 111.654 83.4086 98.8746 70.4962 105.776Z" fill="#0A1B35"/>
<path d="M85.9214 196.84L86.3735 205.431C90.0172 213.702 99.8311 207.173 99.8311 207.173L105.828 205.95C106.869 205.663 107.774 205.016 108.382 204.125C108.991 203.234 109.264 202.156 109.153 201.082L108.887 195.085C108.92 193.837 108.462 192.625 107.612 191.71C106.761 190.795 105.587 190.25 104.339 190.191L99.0199 190.404C97.4651 190.475 95.9524 190.932 94.6183 191.734L85.9214 196.84Z" fill="#FED4C2"/>
</svg>
