<svg width="115" height="112" viewBox="0 0 115 112" fill="none" xmlns="http://www.w3.org/2000/svg">
<g clip-path="url(#clip0)">
<path fill-rule="evenodd" clip-rule="evenodd" d="M103.696 42.4247C108.214 56.728 111.567 71.9487 104.514 85.1903C96.9753 99.3434 82.8929 109.236 66.993 111.333C50.9738 113.446 35.0814 107.226 23.6 95.8624C12.2277 84.6066 6.67417 68.9207 8.03304 52.9779C9.41874 36.7202 17.3447 21.7049 30.7181 12.3501C44.7421 2.54018 62.8956 -2.98633 78.7172 3.53385C93.7066 9.71109 98.8128 26.9681 103.696 42.4247Z" fill="#FCF5DE"/>
<path d="M41.4807 73.5732C37.5745 69.6182 35.1819 64.1494 35.1819 58.1436C35.1819 45.9854 44.9963 36.1709 57.1545 36.1709C69.3127 36.1709 79.1272 45.9854 79.1272 58.1436C79.1272 70.3018 69.3127 80.1162 57.1545 80.1162H35.1819L41.4807 73.5732Z" fill="white"/>
<path d="M64.4788 41.0537C64.4788 35.6826 68.8733 31.2881 74.2444 31.2881C76.7834 31.2881 79.1272 32.2646 80.8362 33.876C81.0315 34.0713 80.4944 34.3643 80.3967 34.6572C80.3479 34.9502 80.7385 35.292 80.885 35.4873C81.0803 35.7314 81.6174 36.2686 82.0569 36.3662C82.3499 36.415 82.594 36.0244 82.6428 36.1709C83.4729 37.5869 83.9612 39.2959 83.9612 41.0537C83.9612 46.4248 79.5667 50.8193 74.1956 50.8193C68.8245 50.8193 64.4788 46.4248 64.4788 41.0537Z" fill="#FFDC79"/>
<path d="M80.8364 33.876L74.2934 41.2002L71.9497 38.1729C71.4614 37.5381 70.5337 37.4404 69.8989 37.9287C69.2641 38.417 69.1665 39.3447 69.6548 39.9795L73.0727 44.374C73.3169 44.7158 73.7563 44.9111 74.1958 44.96H74.2446C74.684 44.96 75.0747 44.7646 75.3188 44.4717L82.6919 36.1709C82.2036 35.3408 81.5688 34.5596 80.8364 33.876Z" fill="white"/>
<path d="M57.1548 81.5811H35.1821C34.5962 81.5811 34.0591 81.2393 33.8149 80.7021C33.5708 80.165 33.7173 79.5303 34.1079 79.0908L39.479 73.5244C35.768 69.2764 33.7173 63.8564 33.7173 58.1436C33.7173 45.2041 44.2153 34.7061 57.1548 34.7061C57.7895 34.7061 58.3755 34.7061 59.0102 34.7549C59.8403 34.8037 60.4262 35.5361 60.3774 36.3174C60.3286 37.1475 59.5962 37.7334 58.8149 37.6846C58.229 37.6357 57.6919 37.6357 57.1548 37.6357C45.8266 37.6357 36.6469 46.8154 36.6469 58.1436C36.6469 63.5635 38.7466 68.6904 42.5551 72.5479C43.0923 73.1338 43.1411 74.0127 42.5551 74.5986L38.6489 78.6514H57.1548C68.4829 78.6514 77.6626 69.4717 77.6626 58.1436C77.6626 57.6064 77.6626 57.0693 77.6137 56.5322C77.5649 55.7021 78.1508 55.0186 78.9809 54.9697C79.7622 54.9209 80.4946 55.5068 80.5434 56.3369C80.5923 56.9229 80.5923 57.5576 80.5923 58.1436C80.5923 71.083 70.0942 81.5811 57.1548 81.5811Z" fill="#193765"/>
<path d="M65.4553 55.2139H48.8538C48.0237 55.2139 47.3889 54.5791 47.3889 53.749C47.3889 52.9189 48.0237 52.2842 48.8538 52.2842H65.4553C66.2854 52.2842 66.9202 52.9189 66.9202 53.749C66.9202 54.5791 66.2854 55.2139 65.4553 55.2139ZM58.1311 64.0029H48.8538C48.0237 64.0029 47.3889 63.3682 47.3889 62.5381C47.3889 61.708 48.0237 61.0732 48.8538 61.0732H58.1311C58.9612 61.0732 59.5959 61.708 59.5959 62.5381C59.5959 63.3682 58.9612 64.0029 58.1311 64.0029Z" fill="#D5D9E0"/>
<path d="M65.9436 64.0029H65.4553C64.6252 64.0029 63.9905 63.3682 63.9905 62.5381C63.9905 61.708 64.6252 61.0732 65.4553 61.0732H65.9436C66.7737 61.0732 67.4084 61.708 67.4084 62.5381C67.4084 63.3682 66.7737 64.0029 65.9436 64.0029Z" fill="#D5D9E0"/>
</g>
<defs>
<clipPath id="clip0">
<rect width="115" height="112" fill="white"/>
</clipPath>
</defs>
</svg>
